<svg width="181" height="53" viewBox="0 0 181 53" fill="none" xmlns="http://www.w3.org/2000/svg">
<path d="M173.714 52.9292H7.04753C3.38253 52.9292 0.380859 50.0026 0.380859 46.4292V7.4292C0.380859 3.85583 3.38253 0.929202 7.04753 0.929202H173.714C177.379 0.929202 180.381 3.85583 180.381 7.4292V46.4292C180.381 50.0026 177.379 52.9292 173.714 52.9292Z" fill="black"/>
<path d="M173.714 1.97082C176.801 1.97082 179.313 4.4197 179.313 7.4292V46.4292C179.313 49.4387 176.801 51.8876 173.714 51.8876H7.04753C3.96086 51.8876 1.44919 49.4387 1.44919 46.4292V7.4292C1.44919 4.4197 3.96086 1.97082 7.04753 1.97082H173.714ZM173.714 0.929202H7.04753C3.38253 0.929202 0.380859 3.85583 0.380859 7.4292V46.4292C0.380859 50.0026 3.38253 52.9292 7.04753 52.9292H173.714C177.379 52.9292 180.381 50.0026 180.381 46.4292V7.4292C180.381 3.85583 177.379 0.929202 173.714 0.929202Z" fill="#A6A6A6"/>
<path d="M14.2941 10.7296C13.9024 11.1294 13.6758 11.7518 13.6758 12.5578V41.3073C13.6758 42.1133 13.9024 42.7356 14.2941 43.1354L14.3908 43.2231L30.9141 27.1194V26.7391L14.3908 10.6354L14.2941 10.7296Z" fill="url(#paint0_linear_1414_9320)"/>
<path d="M36.4157 32.49L30.9141 27.1194V26.7391L36.4224 21.3685L36.5457 21.4384L43.0691 25.0572C44.9307 26.0842 44.9307 27.7742 43.0691 28.8077L36.5457 32.4201L36.4157 32.49Z" fill="url(#paint1_linear_1414_9320)"/>
<path d="M36.5466 32.4202L30.9149 26.9293L14.2949 43.1354C14.9133 43.7692 15.9216 43.8455 17.0683 43.2118L36.5466 32.4202Z" fill="url(#paint2_linear_1414_9320)"/>
<path d="M36.5466 21.4383L17.0683 10.6467C15.9216 10.0195 14.9133 10.0958 14.2949 10.7296L30.9149 26.9292L36.5466 21.4383Z" fill="url(#paint3_linear_1414_9320)"/>
<path d="M63.6042 14.2461C63.6042 15.3316 63.2709 16.201 62.6142 16.8494C61.8592 17.618 60.8759 18.0048 59.6709 18.0048C58.5192 18.0048 57.5359 17.6115 56.7292 16.8364C55.9209 16.0499 55.5176 15.0846 55.5176 13.9293C55.5176 12.7739 55.9209 11.8086 56.7292 11.0286C57.5359 10.247 58.5192 9.85376 59.6709 9.85376C60.2442 9.85376 60.7909 9.96913 61.3126 10.1836C61.8326 10.3998 62.2559 10.6923 62.5626 11.053L61.8659 11.7388C61.3309 11.1229 60.6026 10.819 59.6709 10.819C58.8309 10.819 58.1026 11.105 57.4842 11.6819C56.8726 12.2604 56.5659 13.0095 56.5659 13.9293C56.5659 14.849 56.8726 15.6046 57.4842 16.1831C58.1026 16.7535 58.8309 17.046 59.6709 17.046C60.5626 17.046 61.3126 16.7535 61.9042 16.1766C62.2942 15.7948 62.5159 15.2683 62.5742 14.5955H59.6709V13.6563H63.5442C63.5909 13.8594 63.6042 14.056 63.6042 14.2461Z" fill="white" stroke="white" stroke-width="0.16" stroke-miterlimit="10"/>
<path d="M69.7484 10.9896H66.1101V13.4596H69.3901V14.3988H66.1101V16.8688H69.7484V17.826H65.0801V10.0325H69.7484V10.9896Z" fill="white" stroke="white" stroke-width="0.16" stroke-miterlimit="10"/>
<path d="M74.0859 17.826H73.0559V10.9896H70.8242V10.0325H76.3192V10.9896H74.0859V17.826Z" fill="white" stroke="white" stroke-width="0.16" stroke-miterlimit="10"/>
<path d="M80.2969 17.826V10.0325H81.3252V17.826H80.2969Z" fill="white" stroke="white" stroke-width="0.16" stroke-miterlimit="10"/>
<path d="M85.8827 17.826H84.8611V10.9896H82.6211V10.0325H88.1227V10.9896H85.8827V17.826Z" fill="white" stroke="white" stroke-width="0.16" stroke-miterlimit="10"/>
<path d="M98.5255 16.8234C97.7371 17.6115 96.7605 18.0048 95.5955 18.0048C94.4238 18.0048 93.4471 17.6115 92.6588 16.8234C91.8721 16.0369 91.4805 15.0716 91.4805 13.9293C91.4805 12.7869 91.8721 11.8216 92.6588 11.0351C93.4471 10.247 94.4238 9.85376 95.5955 9.85376C96.7538 9.85376 97.7305 10.247 98.5188 11.0416C99.3121 11.8346 99.7038 12.7934 99.7038 13.9293C99.7038 15.0716 99.3121 16.0369 98.5255 16.8234ZM93.4205 16.1701C94.0138 16.7535 94.7355 17.046 95.5955 17.046C96.4488 17.046 97.1771 16.7535 97.7638 16.1701C98.3555 15.5868 98.6555 14.8376 98.6555 13.9293C98.6555 13.0209 98.3555 12.2718 97.7638 11.6884C97.1771 11.105 96.4488 10.8125 95.5955 10.8125C94.7355 10.8125 94.0138 11.105 93.4205 11.6884C92.8288 12.2718 92.5288 13.0209 92.5288 13.9293C92.5288 14.8376 92.8288 15.5868 93.4205 16.1701Z" fill="white" stroke="white" stroke-width="0.16" stroke-miterlimit="10"/>
<path d="M101.148 17.826V10.0325H102.398L106.285 16.0937H106.33L106.285 14.5955V10.0325H107.313V17.826H106.24L102.17 11.4657H102.125L102.17 12.9705V17.826H101.148Z" fill="white" stroke="white" stroke-width="0.16" stroke-miterlimit="10"/>
<path d="M91.2282 29.2075C88.0965 29.2075 85.5382 31.5312 85.5382 34.7374C85.5382 37.9175 88.0965 40.2656 91.2282 40.2656C94.3665 40.2656 96.9249 37.9175 96.9249 34.7374C96.9249 31.5312 94.3665 29.2075 91.2282 29.2075ZM91.2282 38.0881C89.5099 38.0881 88.0315 36.7052 88.0315 34.7374C88.0315 32.7435 89.5099 31.385 91.2282 31.385C92.9465 31.385 94.4315 32.7435 94.4315 34.7374C94.4315 36.7052 92.9465 38.0881 91.2282 38.0881ZM78.8132 29.2075C75.6749 29.2075 73.1232 31.5312 73.1232 34.7374C73.1232 37.9175 75.6749 40.2656 78.8132 40.2656C81.9499 40.2656 84.5032 37.9175 84.5032 34.7374C84.5032 31.5312 81.9499 29.2075 78.8132 29.2075ZM78.8132 38.0881C77.0932 38.0881 75.6099 36.7052 75.6099 34.7374C75.6099 32.7435 77.0932 31.385 78.8132 31.385C80.5315 31.385 82.0099 32.7435 82.0099 34.7374C82.0099 36.7052 80.5315 38.0881 78.8132 38.0881ZM64.0399 30.9024V33.2521H69.7949C69.6266 34.5651 69.1766 35.5304 68.4866 36.2031C67.6466 37.0156 66.3382 37.9175 64.0399 37.9175C60.4982 37.9175 57.7249 35.1306 57.7249 31.6775C57.7249 28.2244 60.4982 25.4375 64.0399 25.4375C65.9549 25.4375 67.3482 26.1671 68.3766 27.1129L70.0749 25.457C68.6366 24.118 66.7232 23.0894 64.0399 23.0894C59.1832 23.0894 55.1016 26.9422 55.1016 31.6775C55.1016 36.4127 59.1832 40.2656 64.0399 40.2656C66.6649 40.2656 68.6366 39.4271 70.1866 37.8541C71.7749 36.3055 72.2699 34.128 72.2699 32.3697C72.2699 31.8237 72.2232 31.3216 72.1399 30.9024H64.0399ZM124.45 32.724C123.982 31.4874 122.537 29.2075 119.593 29.2075C116.677 29.2075 114.248 31.4484 114.248 34.7374C114.248 37.8346 116.652 40.2656 119.873 40.2656C122.478 40.2656 123.982 38.717 124.6 37.8151L122.667 36.559C122.022 37.4787 121.143 38.0881 119.873 38.0881C118.612 38.0881 117.707 37.5242 117.127 36.4127L124.712 33.3529L124.45 32.724ZM116.717 34.5651C116.652 32.4331 118.415 31.3411 119.678 31.3411C120.668 31.3411 121.508 31.8237 121.788 32.5144L116.717 34.5651ZM110.552 39.9292H113.045V23.6792H110.552V39.9292ZM106.468 30.4392H106.385C105.825 29.7925 104.757 29.2075 103.403 29.2075C100.563 29.2075 97.9665 31.6385 97.9665 34.7552C97.9665 37.8541 100.563 40.2656 103.403 40.2656C104.757 40.2656 105.825 39.6757 106.385 39.0095H106.468V39.8025C106.468 41.9166 105.31 43.0525 103.442 43.0525C101.918 43.0525 100.973 41.98 100.583 41.0781L98.4149 41.9605C99.0399 43.4262 100.695 45.23 103.442 45.23C106.365 45.23 108.832 43.553 108.832 39.4726V29.5439H106.468V30.4392ZM103.617 38.0881C101.898 38.0881 100.46 36.6857 100.46 34.7552C100.46 32.8069 101.898 31.385 103.617 31.385C105.31 31.385 106.645 32.8069 106.645 34.7552C106.645 36.6857 105.31 38.0881 103.617 38.0881ZM136.123 23.6792H130.16V39.9292H132.647V33.7721H136.123C138.885 33.7721 141.593 31.8237 141.593 28.7249C141.593 25.6276 138.878 23.6792 136.123 23.6792ZM136.188 31.5117H132.647V25.9396H136.188C138.045 25.9396 139.105 27.4427 139.105 28.7249C139.105 29.9826 138.045 31.5117 136.188 31.5117ZM151.56 29.1766C149.763 29.1766 147.895 29.9501 147.127 31.6645L149.333 32.5664C149.808 31.6645 150.682 31.372 151.605 31.372C152.895 31.372 154.203 32.1276 154.223 33.4617V33.6324C153.773 33.3789 152.81 33.0035 151.625 33.0035C149.248 33.0035 146.827 34.2791 146.827 36.6597C146.827 38.8372 148.773 40.2396 150.962 40.2396C152.635 40.2396 153.558 39.5035 154.138 38.6471H154.223V39.9032H156.625V33.6697C156.625 30.7886 154.418 29.1766 151.56 29.1766ZM151.26 38.0816C150.447 38.0816 149.313 37.6884 149.313 36.7052C149.313 35.4475 150.727 34.9649 151.95 34.9649C153.045 34.9649 153.558 35.2005 154.223 35.5109C154.028 37.0156 152.7 38.0816 151.26 38.0816ZM165.375 29.5325L162.517 36.5769H162.432L159.477 29.5325H156.795L161.235 39.3767L158.702 44.8546H161.3L168.142 29.5325H165.375ZM142.96 39.9292H145.453V23.6792H142.96V39.9292Z" fill="white"/>
<defs>
<linearGradient id="paint0_linear_1414_9320" x1="29.447" y1="41.6067" x2="7.63691" y2="19.2373" gradientUnits="userSpaceOnUse">
<stop stop-color="#00A0FF"/>
<stop offset="0.0066" stop-color="#00A1FF"/>
<stop offset="0.2601" stop-color="#00BEFF"/>
<stop offset="0.5122" stop-color="#00D2FF"/>
<stop offset="0.7604" stop-color="#00DFFF"/>
<stop offset="1" stop-color="#00E3FF"/>
</linearGradient>
<linearGradient id="paint1_linear_1414_9320" x1="45.4933" y1="26.9274" x2="13.2307" y2="26.9274" gradientUnits="userSpaceOnUse">
<stop stop-color="#FFE000"/>
<stop offset="0.4087" stop-color="#FFBD00"/>
<stop offset="0.7754" stop-color="#FFA500"/>
<stop offset="1" stop-color="#FF9C00"/>
</linearGradient>
<linearGradient id="paint2_linear_1414_9320" x1="33.4843" y1="23.9444" x2="3.90795" y2="-6.39031" gradientUnits="userSpaceOnUse">
<stop stop-color="#FF3A44"/>
<stop offset="1" stop-color="#C31162"/>
</linearGradient>
<linearGradient id="paint3_linear_1414_9320" x1="10.1113" y1="52.7001" x2="23.3185" y2="39.1545" gradientUnits="userSpaceOnUse">
<stop stop-color="#32A071"/>
<stop offset="0.0685" stop-color="#2DA771"/>
<stop offset="0.4762" stop-color="#15CF74"/>
<stop offset="0.8009" stop-color="#06E775"/>
<stop offset="1" stop-color="#00F076"/>
</linearGradient>
</defs>
</svg>
