<svg width="24" height="25" viewBox="0 0 24 25" fill="none" xmlns="http://www.w3.org/2000/svg">
<path d="M17.34 6.29594C17.1027 6.29594 16.8707 6.36632 16.6733 6.49817C16.476 6.63003 16.3222 6.81745 16.2313 7.03672C16.1405 7.25599 16.1168 7.49727 16.1631 7.73005C16.2094 7.96282 16.3236 8.17664 16.4915 8.34447C16.6593 8.51229 16.8731 8.62658 17.1059 8.67288C17.3387 8.71918 17.5799 8.69542 17.7992 8.60459C18.0185 8.51377 18.2059 8.35996 18.3378 8.16262C18.4696 7.96528 18.54 7.73327 18.54 7.49594C18.54 7.17768 18.4136 6.87245 18.1885 6.64741C17.9635 6.42237 17.6583 6.29594 17.34 6.29594ZM21.94 8.71594C21.9206 7.88624 21.7652 7.06534 21.48 6.28594C21.2257 5.61907 20.83 5.01522 20.32 4.51594C19.8248 4.00336 19.2196 3.61011 18.55 3.36594C17.7727 3.0721 16.9508 2.91315 16.12 2.89594C15.06 2.83594 14.72 2.83594 12 2.83594C9.28 2.83594 8.94 2.83594 7.88 2.89594C7.04915 2.91315 6.22734 3.0721 5.45 3.36594C4.78168 3.61259 4.17693 4.0055 3.68 4.51594C3.16743 5.01112 2.77418 5.61638 2.53 6.28594C2.23616 7.06328 2.07721 7.88509 2.06 8.71594C2 9.77594 2 10.1159 2 12.8359C2 15.5559 2 15.8959 2.06 16.9559C2.07721 17.7868 2.23616 18.6086 2.53 19.3859C2.77418 20.0555 3.16743 20.6608 3.68 21.1559C4.17693 21.6664 4.78168 22.0593 5.45 22.3059C6.22734 22.5998 7.04915 22.7587 7.88 22.7759C8.94 22.8359 9.28 22.8359 12 22.8359C14.72 22.8359 15.06 22.8359 16.12 22.7759C16.9508 22.7587 17.7727 22.5998 18.55 22.3059C19.2196 22.0618 19.8248 21.6685 20.32 21.1559C20.8322 20.6585 21.2283 20.0541 21.48 19.3859C21.7652 18.6065 21.9206 17.7856 21.94 16.9559C21.94 15.8959 22 15.5559 22 12.8359C22 10.1159 22 9.77594 21.94 8.71594ZM20.14 16.8359C20.1327 17.4707 20.0178 18.0996 19.8 18.6959C19.6403 19.1311 19.3839 19.5244 19.05 19.8459C18.7256 20.1764 18.3332 20.4324 17.9 20.5959C17.3037 20.8137 16.6748 20.9287 16.04 20.9359C15.04 20.9859 14.67 20.9959 12.04 20.9959C9.41 20.9959 9.04 20.9959 8.04 20.9359C7.38089 20.9483 6.72459 20.8468 6.1 20.6359C5.68578 20.464 5.31136 20.2087 5 19.8859C4.66809 19.5647 4.41484 19.1711 4.26 18.7359C4.01586 18.1311 3.88044 17.4879 3.86 16.8359C3.86 15.8359 3.8 15.4659 3.8 12.8359C3.8 10.2059 3.8 9.83594 3.86 8.83594C3.86448 8.18699 3.98295 7.54388 4.21 6.93594C4.38605 6.51385 4.65627 6.1376 5 5.83594C5.30381 5.49211 5.67929 5.21903 6.1 5.03594C6.70955 4.81598 7.352 4.70102 8 4.69594C9 4.69594 9.37 4.63594 12 4.63594C14.63 4.63594 15 4.63594 16 4.69594C16.6348 4.70322 17.2637 4.81818 17.86 5.03594C18.3144 5.20459 18.7223 5.47878 19.05 5.83594C19.3777 6.14312 19.6338 6.51867 19.8 6.93594C20.0223 7.54487 20.1373 8.18772 20.14 8.83594C20.19 9.83594 20.2 10.2059 20.2 12.8359C20.2 15.4659 20.19 15.8359 20.14 16.8359ZM12 7.70594C10.9858 7.70791 9.99496 8.01046 9.15265 8.57536C8.31035 9.14025 7.65438 9.94213 7.26763 10.8797C6.88089 11.8172 6.78072 12.8484 6.97979 13.8429C7.17886 14.8373 7.66824 15.7505 8.38608 16.4669C9.10392 17.1834 10.018 17.671 11.0129 17.8681C12.0077 18.0652 13.0387 17.963 13.9755 17.5745C14.9123 17.1859 15.7129 16.5284 16.2761 15.685C16.8394 14.8416 17.14 13.8501 17.14 12.8359C17.1413 12.161 17.0092 11.4925 16.7512 10.8689C16.4933 10.2452 16.1146 9.67875 15.6369 9.20199C15.1592 8.72523 14.5919 8.34762 13.9678 8.09087C13.3436 7.83412 12.6749 7.7033 12 7.70594ZM12 16.1659C11.3414 16.1659 10.6976 15.9706 10.15 15.6047C9.60234 15.2388 9.17552 14.7188 8.92348 14.1103C8.67144 13.5018 8.6055 12.8322 8.73398 12.1863C8.86247 11.5403 9.17963 10.947 9.64533 10.4813C10.111 10.0156 10.7044 9.69841 11.3503 9.56992C11.9963 9.44143 12.6659 9.50738 13.2743 9.75942C13.8828 10.0115 14.4029 10.4383 14.7688 10.9859C15.1347 11.5335 15.33 12.1773 15.33 12.8359C15.33 13.2732 15.2439 13.7063 15.0765 14.1103C14.9092 14.5143 14.6639 14.8814 14.3547 15.1906C14.0454 15.4998 13.6784 15.7451 13.2743 15.9125C12.8703 16.0798 12.4373 16.1659 12 16.1659Z" fill="white"/>
</svg>
