<svg width="181" height="53" viewBox="0 0 181 53" fill="none" xmlns="http://www.w3.org/2000/svg">
<path d="M179.381 46.9323C179.381 49.7035 177.089 51.9481 174.255 51.9481H6.51329C3.68036 51.9481 1.38086 49.7035 1.38086 46.9323V6.93277C1.38086 4.16294 3.68036 1.9104 6.51329 1.9104H174.254C177.089 1.9104 179.38 4.16294 179.38 6.93277L179.381 46.9323Z" fill="black"/>
<path d="M173.714 1.97082C176.801 1.97082 179.313 4.4197 179.313 7.4292V46.4292C179.313 49.4387 176.801 51.8876 173.714 51.8876H7.04753C3.96086 51.8876 1.44919 49.4387 1.44919 46.4292V7.4292C1.44919 4.4197 3.96086 1.97082 7.04753 1.97082H173.714ZM173.714 0.929202H7.04753C3.38253 0.929202 0.380859 3.85583 0.380859 7.4292V46.4292C0.380859 50.0026 3.38253 52.9292 7.04753 52.9292H173.714C177.379 52.9292 180.381 50.0026 180.381 46.4292V7.4292C180.381 3.85583 177.379 0.929202 173.714 0.929202Z" fill="#A6A6A6"/>
<path d="M40.5523 26.6483C40.5136 22.4584 44.071 20.42 44.2336 20.3251C42.219 17.4612 39.0963 17.0699 37.999 17.0387C35.3763 16.7696 32.8323 18.5688 31.4963 18.5688C30.1336 18.5688 28.0763 17.0647 25.859 17.1089C23.0056 17.1518 20.3363 18.7625 18.8723 21.2637C15.851 26.3636 18.1043 33.8581 20.999 37.9804C22.447 39.9993 24.139 42.2535 26.3536 42.1742C28.5203 42.0871 29.3296 40.8274 31.9443 40.8274C34.535 40.8274 35.295 42.1742 37.5536 42.1235C39.879 42.0871 41.343 40.0955 42.7403 38.0584C44.4136 35.7444 45.0856 33.4655 45.1123 33.3485C45.0576 33.3303 40.5963 31.6702 40.5523 26.6483Z" fill="white"/>
<path d="M36.2856 14.3269C37.451 12.906 38.2483 10.9729 38.027 9.01123C36.3403 9.08403 34.231 10.1487 33.0163 11.5384C31.9416 12.763 30.9816 14.7702 31.2296 16.6578C33.1243 16.7956 35.0696 15.7257 36.2856 14.3269Z" fill="white"/>
<path d="M65.7806 13.9408C65.7806 15.4709 65.3099 16.6227 64.3699 17.3962C63.4992 18.1099 62.2619 18.4674 60.6592 18.4674C59.8646 18.4674 59.1846 18.4336 58.6152 18.366V10.0057C59.3579 9.88866 60.1579 9.82886 61.0219 9.82886C62.5486 9.82886 63.6992 10.1526 64.4752 10.8C65.3446 11.5319 65.7806 12.5784 65.7806 13.9408ZM64.3072 13.9785C64.3072 12.9866 64.0379 12.2261 63.4992 11.6957C62.9606 11.1666 62.1739 10.9014 61.1379 10.9014C60.6979 10.9014 60.3232 10.93 60.0126 10.9898V17.3455C60.1846 17.3715 60.4992 17.3832 60.9566 17.3832C62.0259 17.3832 62.8512 17.0933 63.4326 16.5135C64.0139 15.9337 64.3072 15.0887 64.3072 13.9785Z" fill="white"/>
<path d="M73.5935 15.2771C73.5935 16.2196 73.3175 16.9918 72.7655 17.5976C72.1868 18.2203 71.4202 18.531 70.4628 18.531C69.5402 18.531 68.8055 18.2333 68.2575 17.6353C67.7108 17.0386 67.4375 16.2859 67.4375 15.3785C67.4375 14.4295 67.7188 13.6508 68.2842 13.0463C68.8495 12.4418 69.6095 12.1389 70.5668 12.1389C71.4895 12.1389 72.2308 12.4366 72.7922 13.0333C73.3255 13.6131 73.5935 14.3619 73.5935 15.2771ZM72.1442 15.3213C72.1442 14.7558 72.0188 14.2709 71.7695 13.8666C71.4762 13.3778 71.0588 13.1334 70.5162 13.1334C69.9548 13.1334 69.5282 13.3778 69.2348 13.8666C68.9842 14.2709 68.8602 14.7636 68.8602 15.346C68.8602 15.9115 68.9855 16.3964 69.2348 16.8007C69.5375 17.2895 69.9588 17.5339 70.5028 17.5339C71.0362 17.5339 71.4548 17.2856 71.7562 16.7877C72.0148 16.3756 72.1442 15.8868 72.1442 15.3213Z" fill="white"/>
<path d="M84.0676 12.2639L82.1009 18.3921H80.8209L80.0063 15.731C79.7996 15.0667 79.6316 14.4063 79.5009 13.7511H79.4756C79.3543 14.4245 79.1863 15.0836 78.9703 15.731L78.1049 18.3921H76.8103L74.9609 12.2639H76.3969L77.1076 15.1772C77.2796 15.8662 77.4209 16.5227 77.5343 17.1441H77.5596C77.6636 16.6319 77.8356 15.9793 78.0783 15.1902L78.9703 12.2652H80.1089L80.9636 15.1278C81.1703 15.8259 81.3383 16.498 81.4676 17.1454H81.5063C81.6009 16.5149 81.7436 15.8428 81.9329 15.1278L82.6956 12.2652H84.0676V12.2639Z" fill="white"/>
<path d="M91.312 18.3919H89.9147V14.8819C89.9147 13.8003 89.4934 13.2595 88.6481 13.2595C88.2334 13.2595 87.8987 13.4077 87.6387 13.7054C87.3814 14.0031 87.2507 14.3541 87.2507 14.7558V18.3906H85.8534V14.0148C85.8534 13.4766 85.8361 12.8929 85.8027 12.2611H87.0307L87.0961 13.2192H87.1347C87.2974 12.9215 87.5401 12.6758 87.8587 12.4795C88.2374 12.2507 88.6614 12.135 89.1254 12.135C89.7121 12.135 90.2001 12.3196 90.5881 12.6901C91.0707 13.1438 91.312 13.8211 91.312 14.7207V18.3919Z" fill="white"/>
<path d="M95.1655 18.392H93.7695V9.4519H95.1655V18.392Z" fill="white"/>
<path d="M103.39 15.2771C103.39 16.2196 103.114 16.9918 102.562 17.5976C101.984 18.2203 101.216 18.531 100.26 18.531C99.3357 18.531 98.601 18.2333 98.0544 17.6353C97.5077 17.0386 97.2344 16.2859 97.2344 15.3785C97.2344 14.4295 97.5157 13.6508 98.081 13.0463C98.6464 12.4418 99.4064 12.1389 100.362 12.1389C101.286 12.1389 102.026 12.4366 102.589 13.0333C103.122 13.6131 103.39 14.3619 103.39 15.2771ZM101.94 15.3213C101.94 14.7558 101.814 14.2709 101.565 13.8666C101.273 13.3778 100.854 13.1334 100.313 13.1334C99.7504 13.1334 99.3237 13.3778 99.0317 13.8666C98.781 14.2709 98.657 14.7636 98.657 15.346C98.657 15.9115 98.7824 16.3964 99.0317 16.8007C99.3344 17.2895 99.7557 17.5339 100.3 17.5339C100.833 17.5339 101.25 17.2856 101.552 16.7877C101.812 16.3756 101.94 15.8868 101.94 15.3213Z" fill="white"/>
<path d="M110.154 18.3919H108.899L108.795 17.686H108.757C108.327 18.2489 107.715 18.531 106.921 18.531C106.327 18.531 105.847 18.3451 105.486 17.9759C105.158 17.6405 104.994 17.2232 104.994 16.7279C104.994 15.9791 105.314 15.4084 105.958 15.0132C106.601 14.618 107.505 14.4243 108.669 14.4334V14.319C108.669 13.5117 108.234 13.1087 107.363 13.1087C106.743 13.1087 106.197 13.2608 105.725 13.5624L105.441 12.668C106.025 12.3157 106.746 12.1389 107.597 12.1389C109.239 12.1389 110.063 12.9839 110.063 14.6739V16.9307C110.063 17.543 110.094 18.0305 110.154 18.3919ZM108.703 16.2859V15.3408C107.162 15.3148 106.391 15.7269 106.391 16.5758C106.391 16.8956 106.479 17.1348 106.659 17.2947C106.839 17.4546 107.069 17.5339 107.342 17.5339C107.649 17.5339 107.935 17.439 108.197 17.2505C108.459 17.0607 108.621 16.8202 108.681 16.5251C108.695 16.4588 108.703 16.3782 108.703 16.2859Z" fill="white"/>
<path d="M118.094 18.392H116.854L116.788 17.4079H116.75C116.354 18.1567 115.679 18.5311 114.731 18.5311C113.974 18.5311 113.343 18.2412 112.843 17.6614C112.343 17.0816 112.094 16.3289 112.094 15.4046C112.094 14.4127 112.364 13.6093 112.908 12.9957C113.435 12.4237 114.08 12.1377 114.848 12.1377C115.692 12.1377 116.283 12.4146 116.619 12.9697H116.646V9.4519H118.044V16.741C118.044 17.3377 118.06 17.8876 118.094 18.392ZM116.646 15.8076V14.7858C116.646 14.609 116.632 14.466 116.607 14.3568C116.528 14.0292 116.359 13.7536 116.102 13.5313C115.842 13.309 115.528 13.1972 115.167 13.1972C114.646 13.1972 114.238 13.3987 113.938 13.803C113.64 14.2073 113.49 14.7234 113.49 15.3539C113.49 15.9597 113.632 16.4511 113.919 16.8294C114.222 17.2324 114.63 17.4339 115.14 17.4339C115.599 17.4339 115.966 17.2662 116.244 16.9295C116.514 16.6188 116.646 16.2444 116.646 15.8076Z" fill="white"/>
<path d="M130.045 15.2771C130.045 16.2196 129.769 16.9918 129.217 17.5976C128.638 18.2203 127.873 18.531 126.914 18.531C125.993 18.531 125.258 18.2333 124.709 17.6353C124.162 17.0386 123.889 16.2859 123.889 15.3785C123.889 14.4295 124.17 13.6508 124.735 13.0463C125.301 12.4418 126.061 12.1389 127.019 12.1389C127.941 12.1389 128.683 12.4366 129.243 13.0333C129.777 13.6131 130.045 14.3619 130.045 15.2771ZM128.597 15.3213C128.597 14.7558 128.471 14.2709 128.222 13.8666C127.927 13.3778 127.511 13.1334 126.967 13.1334C126.407 13.1334 125.981 13.3778 125.686 13.8666C125.435 14.2709 125.311 14.7636 125.311 15.346C125.311 15.9115 125.437 16.3964 125.686 16.8007C125.989 17.2895 126.41 17.5339 126.954 17.5339C127.487 17.5339 127.907 17.2856 128.209 16.7877C128.466 16.3756 128.597 15.8868 128.597 15.3213Z" fill="white"/>
<path d="M137.559 18.3919H136.163V14.8819C136.163 13.8003 135.741 13.2595 134.895 13.2595C134.48 13.2595 134.145 13.4077 133.887 13.7054C133.628 14.0031 133.499 14.3541 133.499 14.7558V18.3906H132.1V14.0148C132.1 13.4766 132.084 12.8929 132.051 12.2611H133.277L133.343 13.2192H133.381C133.545 12.9215 133.788 12.6758 134.105 12.4795C134.485 12.2507 134.908 12.135 135.373 12.135C135.959 12.135 136.447 12.3196 136.835 12.6901C137.319 13.1438 137.559 13.8211 137.559 14.7207V18.3919Z" fill="white"/>
<path d="M146.963 13.2842H145.424V16.2612C145.424 17.0178 145.697 17.3961 146.239 17.3961C146.489 17.3961 146.697 17.3753 146.861 17.3324L146.897 18.3659C146.621 18.4673 146.259 18.518 145.812 18.518C145.26 18.518 144.831 18.3542 144.52 18.0266C144.208 17.699 144.053 17.1478 144.053 16.3743V13.2842H143.135V12.2637H144.053V11.1405L145.423 10.7375V12.2624H146.961V13.2842H146.963Z" fill="white"/>
<path d="M154.359 18.392H152.96V14.908C152.96 13.8095 152.539 13.2596 151.695 13.2596C151.047 13.2596 150.604 13.5781 150.362 14.2151C150.32 14.349 150.296 14.5128 150.296 14.7052V18.3907H148.9V9.4519H150.296V13.1452H150.323C150.763 12.4731 151.394 12.1377 152.211 12.1377C152.79 12.1377 153.268 12.3223 153.648 12.6928C154.122 13.1543 154.359 13.8407 154.359 14.7481V18.392Z" fill="white"/>
<path d="M161.99 15.0379C161.99 15.2823 161.972 15.4877 161.938 15.6554H157.748C157.766 16.2612 157.966 16.7227 158.354 17.0425C158.709 17.3285 159.166 17.4715 159.726 17.4715C160.346 17.4715 160.912 17.3753 161.421 17.1816L161.64 18.128C161.044 18.3802 160.342 18.5063 159.53 18.5063C158.557 18.5063 157.79 18.2268 157.236 17.6678C156.678 17.1088 156.402 16.3587 156.402 15.4175C156.402 14.4932 156.66 13.7236 157.178 13.11C157.72 12.4548 158.452 12.1272 159.376 12.1272C160.28 12.1272 160.966 12.4548 161.43 13.11C161.805 13.63 161.99 14.2735 161.99 15.0379ZM160.657 14.6856C160.668 14.2813 160.576 13.9329 160.386 13.6391C160.144 13.2608 159.774 13.071 159.274 13.071C158.818 13.071 158.446 13.2556 158.162 13.6261C157.93 13.9212 157.793 14.2735 157.748 14.6856H160.657Z" fill="white"/>
<path d="M71.9077 41.8844H68.8797L67.2211 36.8027H61.4557L59.8757 41.8844H56.9277L62.6397 24.584H66.1677L71.9077 41.8844ZM66.7211 34.6707L65.2211 30.1532C65.0624 29.6917 64.7651 28.6049 64.3264 26.8941H64.2731C64.0984 27.6299 63.8171 28.7167 63.4304 30.1532L61.9571 34.6707H66.7211Z" fill="white"/>
<path d="M86.5967 35.4937C86.5967 37.6153 86.0087 39.2923 84.8327 40.5234C83.7794 41.6193 82.4714 42.1666 80.9101 42.1666C79.2247 42.1666 78.0141 41.5764 77.2767 40.396H77.2234V46.9675H74.3807V33.5164C74.3807 32.1826 74.3447 30.8137 74.2754 29.4097H76.7754L76.9341 31.387H76.9874C77.9354 29.8972 79.3741 29.1536 81.3047 29.1536C82.8141 29.1536 84.0741 29.7347 85.0821 30.8982C86.0927 32.063 86.5967 33.5944 86.5967 35.4937ZM83.7007 35.5951C83.7007 34.3809 83.4207 33.3799 82.8581 32.5921C82.2434 31.7705 81.4181 31.3597 80.3834 31.3597C79.6821 31.3597 79.0447 31.5885 78.4754 32.0396C77.9047 32.4946 77.5314 33.0887 77.3567 33.8245C77.2687 34.1677 77.2247 34.4485 77.2247 34.6695V36.7495C77.2247 37.6569 77.5101 38.4226 78.0807 39.0479C78.6514 39.6732 79.3927 39.9852 80.3047 39.9852C81.3754 39.9852 82.2087 39.5822 82.8047 38.7788C83.4021 37.9741 83.7007 36.9133 83.7007 35.5951Z" fill="white"/>
<path d="M101.312 35.4937C101.312 37.6153 100.724 39.2923 99.5469 40.5234C98.4949 41.6193 97.1869 42.1666 95.6255 42.1666C93.9402 42.1666 92.7295 41.5764 91.9935 40.396H91.9402V46.9675H89.0975V33.5164C89.0975 32.1826 89.0615 30.8137 88.9922 29.4097H91.4922L91.6509 31.387H91.7042C92.6509 29.8972 94.0895 29.1536 96.0215 29.1536C97.5295 29.1536 98.7895 29.7347 99.8002 30.8982C100.807 32.063 101.312 33.5944 101.312 35.4937ZM98.4162 35.5951C98.4162 34.3809 98.1349 33.3799 97.5722 32.5921C96.9575 31.7705 96.1349 31.3597 95.0989 31.3597C94.3962 31.3597 93.7602 31.5885 93.1895 32.0396C92.6189 32.4946 92.2469 33.0887 92.0722 33.8245C91.9855 34.1677 91.9402 34.4485 91.9402 34.6695V36.7495C91.9402 37.6569 92.2255 38.4226 92.7935 39.0479C93.3642 39.6719 94.1055 39.9852 95.0202 39.9852C96.0909 39.9852 96.9242 39.5822 97.5202 38.7788C98.1175 37.9741 98.4162 36.9133 98.4162 35.5951Z" fill="white"/>
<path d="M117.766 37.0329C117.766 38.5045 117.242 39.7018 116.19 40.6261C115.034 41.6362 113.424 42.1406 111.356 42.1406C109.447 42.1406 107.916 41.7818 106.758 41.0629L107.416 38.7528C108.664 39.4886 110.034 39.8578 111.526 39.8578C112.596 39.8578 113.43 39.6212 114.028 39.1506C114.624 38.68 114.922 38.0482 114.922 37.2604C114.922 36.5584 114.676 35.9669 114.184 35.4872C113.695 35.0075 112.878 34.5616 111.736 34.1495C108.63 33.0198 107.078 31.3649 107.078 29.1887C107.078 27.7665 107.622 26.6004 108.711 25.693C109.796 24.7843 111.244 24.3306 113.055 24.3306C114.67 24.3306 116.011 24.6049 117.082 25.1522L116.371 27.4116C115.371 26.8812 114.24 26.616 112.975 26.616C111.975 26.616 111.194 26.8565 110.634 27.3349C110.16 27.7626 109.923 28.2839 109.923 28.9014C109.923 29.5852 110.194 30.1507 110.738 30.5953C111.211 31.0061 112.071 31.4507 113.319 31.9304C114.846 32.5297 115.967 33.2304 116.688 34.0338C117.407 34.8346 117.766 35.8369 117.766 37.0329Z" fill="white"/>
<path d="M127.165 31.4896H124.032V37.5463C124.032 39.0868 124.584 39.8564 125.69 39.8564C126.198 39.8564 126.62 39.8135 126.953 39.7277L127.032 41.8324C126.472 42.0365 125.734 42.1392 124.821 42.1392C123.698 42.1392 122.821 41.8051 122.188 41.1382C121.557 40.47 121.24 39.3494 121.24 37.7751V31.487H119.373V29.407H121.24V27.1229L124.032 26.3013V29.407H127.165V31.4896Z" fill="white"/>
<path d="M141.302 35.5443C141.302 37.4618 140.739 39.0361 139.616 40.2672C138.439 41.5347 136.876 42.1665 134.928 42.1665C133.051 42.1665 131.556 41.5594 130.442 40.3452C129.327 39.131 128.77 37.5983 128.77 35.751C128.77 33.8179 129.343 32.2345 130.494 31.0034C131.642 29.771 133.191 29.1548 135.139 29.1548C137.016 29.1548 138.527 29.7619 139.667 30.9774C140.758 32.1565 141.302 33.6788 141.302 35.5443ZM138.352 35.634C138.352 34.4835 138.1 33.4968 137.59 32.6739C136.994 31.6781 136.142 31.1815 135.038 31.1815C133.895 31.1815 133.027 31.6794 132.431 32.6739C131.92 33.4981 131.668 34.5004 131.668 35.686C131.668 36.8365 131.92 37.8232 132.431 38.6448C133.046 39.6406 133.904 40.1372 135.012 40.1372C136.098 40.1372 136.95 39.6302 137.564 38.6188C138.088 37.7803 138.352 36.7832 138.352 35.634Z" fill="white"/>
<path d="M150.543 31.8472C150.261 31.7965 149.961 31.7705 149.647 31.7705C148.647 31.7705 147.873 32.1384 147.329 32.8755C146.856 33.5255 146.619 34.3471 146.619 35.339V41.8845H143.777L143.804 33.3383C143.804 31.9005 143.768 30.5914 143.697 29.411H146.173L146.277 31.7978H146.356C146.656 30.9775 147.129 30.3171 147.777 29.8218C148.411 29.3759 149.095 29.1536 149.832 29.1536C150.095 29.1536 150.332 29.1718 150.543 29.2043V31.8472Z" fill="white"/>
<path d="M163.255 35.0568C163.255 35.5534 163.222 35.972 163.151 36.3139H154.623C154.657 37.5463 155.069 38.4888 155.861 39.1388C156.579 39.7199 157.509 40.0111 158.65 40.0111C159.913 40.0111 161.065 39.8148 162.101 39.4209L162.546 41.3449C161.335 41.8597 159.906 42.1158 158.257 42.1158C156.273 42.1158 154.715 41.5464 153.582 40.4089C152.451 39.2714 151.885 37.7439 151.885 35.8277C151.885 33.9466 152.411 32.3801 153.466 31.1308C154.57 29.797 156.062 29.1301 157.939 29.1301C159.783 29.1301 161.179 29.797 162.127 31.1308C162.878 32.1903 163.255 33.5007 163.255 35.0568ZM160.545 34.3379C160.563 33.5163 160.378 32.8065 159.993 32.2072C159.501 31.4363 158.745 31.0515 157.727 31.0515C156.798 31.0515 156.042 31.4272 155.465 32.1812C154.991 32.7805 154.71 33.4994 154.623 34.3366H160.545V34.3379Z" fill="white"/>
</svg>
