<svg width="77" height="33" viewBox="0 0 77 33" fill="none" xmlns="http://www.w3.org/2000/svg">
<path d="M26.1223 32.8584H33.5051L31.8119 30.084L26.1223 32.8584ZM30.4315 27.8273L22.7566 15.2612L37.6359 0.858399H25.8819C24.9605 0.857898 24.0754 1.21663 23.4158 1.85792L12.9931 12.0076L14.1667 0.858399H3.55263L0.380832 30.9495C0.355073 31.1908 0.380556 31.4347 0.455623 31.6655C0.530689 31.8962 0.653658 32.1087 0.816533 32.289C0.979408 32.4692 1.17854 32.6134 1.40098 32.7119C1.62342 32.8105 1.86418 32.8613 2.10762 32.861H10.7932L11.5145 26.1039L14.7147 23.0126L20.3448 31.8821C20.5345 32.1804 20.7967 32.4262 21.1072 32.5964C21.4177 32.7667 21.7663 32.8559 22.1207 32.8558H26.1223L28.1412 28.8449L30.4315 27.8273Z" fill="#2D2A70"/>
<path d="M36.8289 32.8584L51.2042 24.1487L53.0343 31.5446C53.1269 31.9203 53.3433 32.2543 53.6489 32.4929C53.9544 32.7316 54.3315 32.8612 54.7198 32.861H64.0258L59.8691 18.8909L75.6997 9.29762L75.7669 8.6536L26.1348 32.8558L36.8289 32.8584ZM58.3827 13.8856L54.5026 0.858398H45.3595C44.4233 0.858351 43.5056 1.11782 42.709 1.60779C41.9124 2.09776 41.2683 2.79891 40.8486 3.63283L27.7814 29.5481L75.8625 7.69015L75.9375 6.95597L58.3827 13.8856ZM42.9296 19.9832L46.135 13.2236L46.9803 11.3559C47.0299 11.2477 47.112 11.1576 47.2152 11.0979C47.3184 11.0382 47.4377 11.0119 47.5566 11.0226C47.6755 11.0334 47.7881 11.0806 47.8788 11.1578C47.9696 11.2351 48.0341 11.3385 48.0634 11.4538L49.5291 17.3788L42.9296 19.9832Z" fill="#ED6B23"/>
<path d="M70.0547 0.858398C68.8074 0.858663 67.6045 1.31923 66.6779 2.15125C65.7514 2.98327 65.1669 4.12778 65.0372 5.36395L64.3909 11.5156L75.9433 6.95597L76.5715 0.858398H70.0547ZM62.1445 32.8584H73.2601L75.6951 9.3002L63.8687 16.472L62.1445 32.8584Z" fill="#2D2A70"/>
</svg>
