<svg width="256" height="45" viewBox="0 0 256 45" fill="none" xmlns="http://www.w3.org/2000/svg">
<path d="M55.841 6.5C52.8999 9.01297 50.6565 12.3187 49.4416 16.0862C50.8477 17.8608 52.36 19.5474 53.9689 21.1364C54.4208 20.7193 54.8796 20.3095 55.3452 19.9074C55.0621 18.132 54.9151 16.3112 54.9151 14.4561C54.9151 11.7174 55.2355 9.05356 55.841 6.5Z" fill="#FF7300"/>
<path d="M48.4253 22.5811C48.4253 23.7523 48.5205 24.9013 48.7036 26.0207C48.8005 26.1347 48.8981 26.2481 48.9964 26.3608C50.5399 24.5136 52.2013 22.7683 53.9689 21.1364C52.36 19.5474 50.8477 17.8608 49.4416 16.0862C48.7817 18.1326 48.4253 20.3152 48.4253 22.5811Z" fill="#FF7300"/>
<path d="M48.9964 26.3608C48.8981 26.2481 48.8005 26.1347 48.7036 26.0207C48.7349 26.2117 48.7687 26.4019 48.805 26.5911C48.8686 26.5142 48.9324 26.4374 48.9964 26.3608Z" fill="#FF7300"/>
<path d="M50.1043 30.8522C49.747 30.53 49.3965 30.2005 49.053 29.8639C47.1064 32.3786 45.3709 35.0651 43.8733 37.8967C46.5528 38.2941 49.2947 38.5 52.0848 38.5C53.2431 38.5 54.3931 38.4645 55.5338 38.3946C53.2075 36.3285 51.3403 33.757 50.1043 30.8522Z" fill="#0080FF"/>
<path d="M50.1043 30.8522C51.3403 33.757 53.2075 36.3285 55.5338 38.3946C57.5727 38.2696 59.5818 38.0345 61.5553 37.6952C57.2851 36.1719 53.4047 33.8275 50.1043 30.8522Z" fill="#0080FF"/>
<path d="M74.8983 38.1451C78.4604 38.1451 81.8959 37.603 85.1268 36.5968C81.3605 36.0644 77.7157 35.1538 74.2321 33.9049C71.4478 35.1179 68.5446 36.1093 65.5449 36.8565C68.5186 37.696 71.656 38.1451 74.8983 38.1451Z" fill="#0080FF"/>
<path d="M55.9965 23.0414C57.2081 27.7514 59.3934 32.0705 62.325 35.7716C63.3741 36.1844 64.4484 36.547 65.5449 36.8565C68.5446 36.1093 71.4478 35.1179 74.2321 33.9049C70.8167 32.6803 67.5562 31.1305 64.488 29.2927C61.458 27.4778 58.6155 25.382 55.9965 23.0414Z" fill="#0080FF"/>
<path d="M55.6477 22.727C53.8323 24.3771 52.1268 26.1459 50.5433 28.0211C53.8644 31.3588 57.8671 34.0178 62.325 35.7716C59.3934 32.0705 57.2081 27.7514 55.9965 23.0414C55.8798 22.9371 55.7635 22.8323 55.6477 22.727Z" fill="#0080FF"/>
<path d="M72.9286 20.8522V12.0352C66.5979 14.4871 60.829 18.0666 55.8685 22.5274C55.9099 22.6992 55.9525 22.8706 55.9965 23.0414C58.6155 25.382 61.458 27.4778 64.488 29.2927L72.9286 20.8522Z" fill="#0080FF"/>
<path d="M55.6477 22.727C55.7635 22.8323 55.8798 22.9371 55.9965 23.0414C55.9525 22.8706 55.9099 22.6992 55.8685 22.5274C55.7947 22.5938 55.7211 22.6603 55.6477 22.727Z" fill="#0080FF"/>
<path d="M106.319 17.376H100.355V33H96.0427V17.376H90.0787V13.4H106.319V17.376ZM116.563 22.164H116.339C113.511 22.164 111.775 23.872 111.775 27.456V33H107.519V17.992H111.775V21.016C112.643 18.944 114.043 17.6 116.563 17.712V22.164ZM123.786 16.34H119.306V12.56H123.786V16.34ZM123.674 33H119.418V17.992H123.674V33ZM143.435 25.524C143.435 30.536 140.159 33.28 136.603 33.28C134.335 33.28 132.935 32.244 131.927 31.04V37.48H127.671V17.992H131.927V20.148C132.963 18.748 134.391 17.712 136.603 17.712C140.103 17.712 143.435 20.456 143.435 25.468V25.524ZM139.179 25.524V25.468C139.179 22.976 137.499 21.324 135.511 21.324C133.523 21.324 131.871 22.976 131.871 25.468V25.524C131.871 28.016 133.523 29.668 135.511 29.668C137.499 29.668 139.179 28.044 139.179 25.524Z" fill="#0080FF"/>
<path d="M161.938 33H147.014V13.4H161.798V17.236H151.298V21.212H160.538V25.048H151.298V29.164H161.938V33ZM178.232 33H174.116V31.376C173.08 32.524 171.652 33.28 169.58 33.28C166.752 33.28 164.428 31.656 164.428 28.688V28.632C164.428 25.356 166.92 23.844 170.476 23.844C171.988 23.844 173.08 24.096 174.144 24.46V24.208C174.144 22.444 173.052 21.464 170.924 21.464C169.3 21.464 168.152 21.772 166.78 22.276L165.716 19.028C167.368 18.3 168.992 17.824 171.54 17.824C176.188 17.824 178.232 20.232 178.232 24.292V33ZM174.2 27.708V26.952C173.472 26.616 172.52 26.392 171.484 26.392C169.664 26.392 168.544 27.12 168.544 28.464V28.52C168.544 29.668 169.496 30.34 170.868 30.34C172.856 30.34 174.2 29.248 174.2 27.708ZM192.898 28.436C192.898 31.768 190.406 33.28 187.158 33.28C185.058 33.28 182.706 32.58 180.718 31.012L182.538 28.212C184.162 29.388 185.87 30.004 187.27 30.004C188.502 30.004 189.062 29.556 189.062 28.884V28.828C189.062 27.904 187.606 27.596 185.954 27.092C183.854 26.476 181.474 25.496 181.474 22.584V22.528C181.474 19.476 183.938 17.768 186.962 17.768C188.866 17.768 190.938 18.412 192.562 19.504L190.938 22.444C189.454 21.576 187.97 21.044 186.878 21.044C185.842 21.044 185.31 21.492 185.31 22.08V22.136C185.31 22.976 186.738 23.368 188.362 23.928C190.462 24.628 192.898 25.636 192.898 28.38V28.436ZM209.949 25.916C209.949 26.336 209.921 26.588 209.893 26.98H199.449C199.869 28.912 201.213 29.92 203.117 29.92C204.545 29.92 205.581 29.472 206.757 28.38L209.193 30.536C207.793 32.272 205.777 33.336 203.061 33.336C198.553 33.336 195.221 30.172 195.221 25.58V25.524C195.221 21.24 198.273 17.712 202.641 17.712C207.653 17.712 209.949 21.604 209.949 25.86V25.916ZM205.805 24.32C205.553 22.416 204.433 21.128 202.641 21.128C200.877 21.128 199.729 22.388 199.393 24.32H205.805Z" fill="#FF7300"/>
</svg>

