<svg width="20" height="21" viewBox="0 0 20 21" fill="none" xmlns="http://www.w3.org/2000/svg">
<mask id="mask0_1435_647" style="mask-type:alpha" maskUnits="userSpaceOnUse" x="0" y="0" width="20" height="21">
<rect y="0.858398" width="20" height="20" fill="#D9D9D9"/>
</mask>
<g mask="url(#mask0_1435_647)">
<path d="M9.16602 18.3584V16.6917H15.8327V10.7751C15.8327 9.96951 15.6799 9.21256 15.3744 8.50423C15.0688 7.7959 14.6521 7.17784 14.1243 6.65007C13.5966 6.12229 12.9785 5.70562 12.2702 5.40007C11.5618 5.09451 10.8049 4.94173 9.99935 4.94173C9.19379 4.94173 8.43685 5.09451 7.72852 5.40007C7.02018 5.70562 6.40213 6.12229 5.87435 6.65007C5.34657 7.17784 4.9299 7.7959 4.62435 8.50423C4.31879 9.21256 4.16602 9.96951 4.16602 10.7751V15.8584H3.33268C2.87435 15.8584 2.48199 15.6952 2.1556 15.3688C1.82921 15.0424 1.66602 14.6501 1.66602 14.1917V12.5251C1.66602 12.2056 1.7424 11.9244 1.89518 11.6813C2.04796 11.4383 2.24935 11.2403 2.49935 11.0876L2.56185 9.9834C2.68685 8.96951 2.97504 8.05284 3.42643 7.2334C3.87782 6.41395 4.44032 5.71951 5.11393 5.15007C5.78754 4.58062 6.54449 4.13965 7.38477 3.82715C8.22504 3.51465 9.09657 3.3584 9.99935 3.3584C10.916 3.3584 11.7945 3.51465 12.6348 3.82715C13.475 4.13965 14.2285 4.58409 14.8952 5.16048C15.5618 5.73687 16.1209 6.43131 16.5723 7.24381C17.0237 8.05631 17.3119 8.96256 17.4369 9.96256L17.4993 11.0459C17.7493 11.1709 17.9507 11.3549 18.1035 11.598C18.2563 11.841 18.3327 12.1084 18.3327 12.4001V14.3167C18.3327 14.6223 18.2563 14.8931 18.1035 15.1292C17.9507 15.3653 17.7493 15.5459 17.4993 15.6709V16.6917C17.4993 17.1501 17.3362 17.5424 17.0098 17.8688C16.6834 18.1952 16.291 18.3584 15.8327 18.3584H9.16602ZM7.49935 12.5251C7.26324 12.5251 7.06532 12.4452 6.9056 12.2855C6.74588 12.1258 6.66602 11.9278 6.66602 11.6917C6.66602 11.4556 6.74588 11.2577 6.9056 11.098C7.06532 10.9383 7.26324 10.8584 7.49935 10.8584C7.73546 10.8584 7.93338 10.9383 8.0931 11.098C8.25282 11.2577 8.33268 11.4556 8.33268 11.6917C8.33268 11.9278 8.25282 12.1258 8.0931 12.2855C7.93338 12.4452 7.73546 12.5251 7.49935 12.5251ZM12.4993 12.5251C12.2632 12.5251 12.0653 12.4452 11.9056 12.2855C11.7459 12.1258 11.666 11.9278 11.666 11.6917C11.666 11.4556 11.7459 11.2577 11.9056 11.098C12.0653 10.9383 12.2632 10.8584 12.4993 10.8584C12.7355 10.8584 12.9334 10.9383 13.0931 11.098C13.2528 11.2577 13.3327 11.4556 13.3327 11.6917C13.3327 11.9278 13.2528 12.1258 13.0931 12.2855C12.9334 12.4452 12.7355 12.5251 12.4993 12.5251ZM5.02018 11.2334C4.96463 10.414 5.07921 9.6709 5.36393 9.00423C5.64865 8.33756 6.0306 7.77159 6.50977 7.30632C6.98893 6.84104 7.54102 6.4834 8.16602 6.2334C8.79102 5.9834 9.41602 5.8584 10.041 5.8584C11.3049 5.8584 12.3987 6.2577 13.3223 7.05631C14.2459 7.85493 14.8049 8.85145 14.9993 10.0459C13.6938 10.032 12.5132 9.68131 11.4577 8.99382C10.4021 8.30632 9.60352 7.41395 9.06185 6.31673C8.83963 7.44173 8.37088 8.43826 7.6556 9.30632C6.94032 10.1744 6.06185 10.8167 5.02018 11.2334Z" fill="white"/>
</g>
</svg>
