<svg width="24" height="25" viewBox="0 0 24 25" fill="none" xmlns="http://www.w3.org/2000/svg">
<path d="M22 6.63615C21.2483 6.96224 20.4534 7.17781 19.64 7.27615C20.4982 6.76347 21.1413 5.95693 21.45 5.00615C20.6436 5.48621 19.7608 5.82444 18.84 6.00615C18.2245 5.33872 17.405 4.89444 16.5098 4.743C15.6147 4.59155 14.6945 4.74151 13.8938 5.16934C13.093 5.59717 12.4569 6.27868 12.0852 7.10698C11.7135 7.93529 11.6273 8.86354 11.84 9.74615C10.2094 9.66367 8.61444 9.2391 7.15865 8.50001C5.70287 7.76092 4.41885 6.72384 3.39 5.45615C3.02914 6.08632 2.83952 6.79997 2.84 7.52615C2.83872 8.20053 3.00422 8.86476 3.32176 9.45971C3.63929 10.0547 4.09902 10.5619 4.66 10.9361C4.00798 10.9184 3.36989 10.7434 2.8 10.4261V10.4761C2.80489 11.421 3.13599 12.3352 3.73731 13.0641C4.33864 13.793 5.17326 14.2918 6.1 14.4761C5.74326 14.5847 5.37287 14.642 5 14.6461C4.74189 14.6431 4.48442 14.6197 4.23 14.5761C4.49391 15.389 5.00462 16.0993 5.69107 16.6083C6.37753 17.1173 7.20558 17.3997 8.06 17.4161C6.6172 18.5514 4.83588 19.171 3 19.1761C2.66574 19.1772 2.33174 19.1572 2 19.1161C3.87443 20.3264 6.05881 20.9689 8.29 20.9661C9.82969 20.9821 11.3571 20.6912 12.7831 20.1102C14.2091 19.5293 15.505 18.67 16.5952 17.5826C17.6854 16.4953 18.548 15.2015 19.1326 13.7771C19.7172 12.3526 20.012 10.8259 20 9.28615C20 9.11615 20 8.93615 20 8.75615C20.7847 8.17096 21.4615 7.45357 22 6.63615Z" fill="white"/>
</svg>
