<svg width="24" height="25" viewBox="0 0 24 25" fill="none" xmlns="http://www.w3.org/2000/svg">
<path d="M22.9991 10.5464C23.0485 9.11506 22.7355 7.69443 22.0891 6.41641C21.6505 5.89201 21.0418 5.53812 20.3691 5.41641C17.5866 5.16394 14.7926 5.06045 11.9991 5.10641C9.2157 5.05837 6.43176 5.15851 3.65905 5.40641C3.11087 5.50613 2.60357 5.76325 2.19905 6.14641C1.29905 6.97641 1.19905 8.39641 1.09905 9.59641C0.953962 11.754 0.953962 13.9188 1.09905 16.0764C1.12798 16.7518 1.22854 17.4222 1.39905 18.0764C1.51963 18.5815 1.76357 19.0488 2.10905 19.4364C2.51632 19.8399 3.03543 20.1116 3.59905 20.2164C5.75497 20.4825 7.92727 20.5928 10.0991 20.5464C13.5991 20.5964 16.669 20.5464 20.299 20.2664C20.8765 20.1681 21.4102 19.896 21.8291 19.4864C22.109 19.2063 22.3181 18.8635 22.4391 18.4864C22.7967 17.389 22.9723 16.2405 22.959 15.0864C22.9991 14.5264 22.9991 11.1464 22.9991 10.5464ZM9.73905 15.6864V9.49641L15.659 12.6064C13.9991 13.5264 11.809 14.5664 9.73905 15.6864Z" fill="white"/>
</svg>
